<svg width="251" height="231" viewBox="0 0 251 231" fill="none" xmlns="http://www.w3.org/2000/svg">
<path fill-rule="evenodd" clip-rule="evenodd" d="M232.043 51.7189C225.503 56.738 219.693 55.521 219.693 55.521C221.032 59.6891 218.294 63.2781 214.979 63.3999C211.663 63.521 209.291 60.1149 210.66 57.833C212.333 54.7299 214.522 56.5251 214.522 56.5251C213.093 56.647 212.272 58.259 213.245 59.1111C215.07 60.692 216.469 59.1721 216.652 58.1071C216.835 57.0421 216.378 54.6091 213.519 54.1221C207.892 53.4231 208.591 59.7189 208.591 59.7189C207.405 55.521 203.436 56.2059 203.436 56.2059C203.436 56.2059 202.751 60.175 206.949 61.3621C206.949 61.3621 200.652 60.662 201.352 66.289C201.838 69.148 204.272 69.605 205.336 69.4221C206.401 69.2399 207.922 67.841 206.34 66.0149C205.488 65.0421 203.876 65.863 203.755 67.293C203.755 67.293 201.96 65.103 205.063 63.43C207.344 62.0611 210.751 64.434 210.629 67.7491C210.507 71.0651 206.918 73.802 202.751 72.464C202.751 72.464 203.968 78.2739 198.949 84.8131C193.93 78.2739 195.147 72.464 195.147 72.464C190.98 73.802 187.39 71.0651 187.269 67.7491C187.147 64.434 190.554 62.0611 192.835 63.43C195.938 65.103 194.143 67.293 194.143 67.293C194.021 65.863 192.409 65.0421 191.557 66.0149C189.976 67.841 191.497 69.2399 192.561 69.4221C193.626 69.605 196.059 69.148 196.546 66.289C197.245 60.662 190.949 61.3621 190.949 61.3621C195.147 60.175 194.462 56.2059 194.462 56.2059C194.462 56.2059 190.493 55.521 189.306 59.7189C189.306 59.7189 190.006 53.4231 184.379 54.1221C181.52 54.6091 181.063 57.0421 181.246 58.1071C181.428 59.1721 182.827 60.692 184.652 59.1111C185.626 58.259 184.805 56.647 183.375 56.5251C183.375 56.5251 185.565 54.7299 187.238 57.833C188.607 60.1149 186.234 63.521 182.918 63.3999C179.603 63.2781 176.866 59.688 178.204 55.521C178.204 55.521 172.394 56.738 165.855 51.7189C172.394 46.6999 178.204 47.9171 178.204 47.9171C176.866 43.7499 179.603 40.1601 182.919 40.0391C186.234 39.9169 188.607 43.3241 187.238 45.6049C185.565 48.708 183.375 46.9131 183.375 46.9131C184.805 46.7909 185.626 45.1791 184.652 44.327C182.828 42.7461 181.428 44.2669 181.246 45.3311C181.063 46.396 181.52 48.829 184.379 49.316C190.006 50.0159 189.306 43.719 189.306 43.719C190.493 47.9171 194.462 47.232 194.462 47.232C194.462 47.232 195.147 43.2629 190.949 42.0769C190.949 42.0769 197.246 42.7759 196.546 37.1491C196.059 34.2901 193.626 33.834 192.561 34.016C191.497 34.198 189.976 35.598 191.557 37.423C192.409 38.3961 194.021 37.5749 194.143 36.1451C194.143 36.1451 195.938 38.3349 192.835 40.0079C190.554 41.377 187.147 39.005 187.269 35.689C187.39 32.373 190.98 29.6359 195.147 30.9741C195.147 30.9741 193.93 25.164 198.949 18.625C203.968 25.164 202.751 30.9741 202.751 30.9741C206.918 29.6359 210.507 32.373 210.629 35.689C210.751 39.005 207.344 41.377 205.063 40.0079C201.96 38.3349 203.755 36.1451 203.755 36.1451C203.876 37.5749 205.489 38.3961 206.34 37.423C207.922 35.598 206.401 34.198 205.336 34.016C204.272 33.834 201.838 34.2901 201.352 37.1491C200.652 42.7759 206.949 42.0769 206.949 42.0769C202.751 43.2629 203.436 47.2331 203.436 47.2331C203.436 47.2331 207.405 47.9171 208.591 43.719C208.591 43.719 207.892 50.0159 213.519 49.316C216.378 48.829 216.835 46.396 216.652 45.3311C216.469 44.2669 215.07 42.7461 213.245 44.327C212.272 45.1791 213.093 46.7909 214.522 46.9131C214.522 46.9131 212.333 48.708 210.66 45.6049C209.291 43.3241 211.663 39.9169 214.979 40.0391C218.294 40.1601 221.032 43.7499 219.694 47.9171C219.694 47.9171 225.503 46.6999 232.043 51.7189ZM249.823 50.5831C225.887 43.3749 207.293 24.781 200.085 0.845001C199.934 0.344101 199.472 0 198.949 0C198.425 0 197.964 0.344101 197.813 0.845001C190.605 24.781 172.011 43.3749 148.075 50.5831C147.573 50.7339 147.23 51.1959 147.23 51.7189C147.23 52.2419 147.573 52.704 148.075 52.8551C172.011 60.063 190.605 78.6571 197.813 102.593C197.964 103.094 198.425 103.438 198.949 103.438C199.472 103.438 199.934 103.094 200.085 102.593C207.293 78.6571 225.887 60.063 249.823 52.8551C250.324 52.704 250.667 52.2419 250.667 51.7189C250.667 51.1959 250.324 50.7339 249.823 50.5831Z" fill="#CBA069"/>
<path fill-rule="evenodd" clip-rule="evenodd" d="M198.948 47.0959C196.396 47.0959 194.325 49.1661 194.325 51.7189C194.325 54.2718 196.396 56.342 198.948 56.342C201.501 56.342 203.572 54.2718 203.572 51.7189C203.572 49.1661 201.501 47.0959 198.948 47.0959Z" fill="#CBA069"/>
<path fill-rule="evenodd" clip-rule="evenodd" d="M44.5117 230.078L40.7875 224.113C40.7875 224.113 40.8844 229.921 40.8844 230.078H39.3296V221.57H40.7634L44.5355 227.571C44.5355 227.571 44.3546 221.765 44.3424 221.57H45.9086V230.078H44.5117Z" fill="#CBA069"/>
<path fill-rule="evenodd" clip-rule="evenodd" d="M54.3513 223.101L53.1704 227.018H55.5203L54.3513 223.101ZM56.4353 230.079L55.9424 228.415H52.7483L52.2545 230.079H50.5435L53.4235 221.571H55.2314L58.1355 230.079H56.4353Z" fill="#CBA069"/>
<path fill-rule="evenodd" clip-rule="evenodd" d="M65.1635 223.005V230.078H63.5724V223.005H61.2593V221.57H67.5134V223.005H65.1635Z" fill="#CBA069"/>
<path fill-rule="evenodd" clip-rule="evenodd" d="M72.2296 221.571H73.7954V230.078H72.2296V221.571Z" fill="#CBA069"/>
<path fill-rule="evenodd" clip-rule="evenodd" d="M83.0103 228.813C84.2754 228.813 85.4686 227.837 85.4686 225.91C85.4686 224.391 84.6734 222.812 82.9865 222.812C81.5884 222.812 80.5524 223.909 80.5524 225.777C80.5524 227.102 81.1913 228.813 83.0103 228.813ZM82.9984 221.354C85.5895 221.354 87.0715 223.475 87.0715 225.777C87.0715 227.705 86.0235 230.295 82.9624 230.295C80.4554 230.295 78.9135 228.223 78.9135 225.836C78.9135 223.342 80.5405 221.354 82.9984 221.354Z" fill="#CBA069"/>
<path fill-rule="evenodd" clip-rule="evenodd" d="M97.3678 230.078L93.645 224.113C93.645 224.113 93.7408 229.921 93.7408 230.078H92.1869V221.57H93.6198L97.3919 227.571C97.3919 227.571 97.211 221.765 97.2 221.57H98.7658V230.078H97.3678Z" fill="#CBA069"/>
<path fill-rule="evenodd" clip-rule="evenodd" d="M107.208 223.101L106.027 227.018H108.377L107.208 223.101ZM109.292 230.079L108.798 228.415H105.605L105.111 230.079H103.4L106.28 221.571H108.087L110.992 230.079H109.292Z" fill="#CBA069"/>
<path fill-rule="evenodd" clip-rule="evenodd" d="M115.662 230.078V221.57H117.265V228.632H120.639V230.078H115.662Z" fill="#CBA069"/>
<path fill-rule="evenodd" clip-rule="evenodd" d="M139.753 227.704C139.476 228.427 138.524 230.295 136.078 230.295C134.066 230.295 132.102 228.921 132.102 225.74C132.102 223.849 133.174 221.353 136.138 221.353C138.331 221.353 139.235 222.764 139.597 223.98L138.018 224.391C137.921 223.463 137.138 222.811 136.198 222.811C134.813 222.811 133.825 223.872 133.825 225.764C133.825 226.921 134.295 228.789 136.187 228.789C137.283 228.789 137.994 227.945 138.247 227.077L139.753 227.704Z" fill="#CBA069"/>
<path fill-rule="evenodd" clip-rule="evenodd" d="M148.207 228.813C149.472 228.813 150.665 227.837 150.665 225.91C150.665 224.391 149.87 222.812 148.183 222.812C146.785 222.812 145.749 223.909 145.749 225.777C145.749 227.102 146.388 228.813 148.207 228.813ZM148.195 221.354C150.786 221.354 152.268 223.475 152.268 225.777C152.268 227.705 151.22 230.295 148.159 230.295C145.652 230.295 144.11 228.223 144.11 225.836C144.11 223.342 145.737 221.354 148.195 221.354Z" fill="#CBA069"/>
<path fill-rule="evenodd" clip-rule="evenodd" d="M163.711 230.078C163.711 229.873 163.868 223.089 163.868 223.089L162.024 230.078H160.59L158.747 223.089C158.747 223.089 158.903 229.801 158.903 230.078H157.349V221.57H159.662L161.325 227.885L162.964 221.57H165.266V230.078H163.711Z" fill="#CBA069"/>
<path fill-rule="evenodd" clip-rule="evenodd" d="M172.388 225.885H173.786C174.919 225.885 175.486 225.355 175.486 224.355C175.486 222.981 174.376 222.933 173.605 222.933H172.388V225.885ZM174.099 221.571C175.859 221.571 177.125 222.656 177.125 224.403C177.125 225.946 176.232 227.186 174.016 227.186H172.388V230.078H170.798V221.571H174.099Z" fill="#CBA069"/>
<path fill-rule="evenodd" clip-rule="evenodd" d="M184.355 223.101L183.174 227.018H185.523L184.355 223.101ZM186.439 230.079L185.945 228.415H182.752L182.258 230.079H180.547L183.427 221.571H185.234L188.139 230.079H186.439Z" fill="#CBA069"/>
<path fill-rule="evenodd" clip-rule="evenodd" d="M197.99 230.078L194.266 224.113C194.266 224.113 194.363 229.921 194.363 230.078H192.808V221.57H194.242L198.014 227.571C198.014 227.571 197.833 221.765 197.821 221.57H199.388V230.078H197.99Z" fill="#CBA069"/>
<path fill-rule="evenodd" clip-rule="evenodd" d="M208.469 226.716V230.078H206.89V226.716L204.047 221.57H205.854L207.698 225.089L209.553 221.57H211.337L208.469 226.716Z" fill="#CBA069"/>
<path fill-rule="evenodd" clip-rule="evenodd" d="M19.362 143.642L10.7631 130.886L6.77701 134.816V143.642H0V103.438H6.77701V126.045L17.882 115.169H26.594L15.7169 126.045L27.676 143.642H19.362Z" fill="#17405E"/>
<path fill-rule="evenodd" clip-rule="evenodd" d="M46.6242 129.462C45.4853 130.031 43.8331 130.657 41.2142 131.057C38.0822 131.512 34.9503 132.139 34.9503 134.985C34.9503 136.865 36.2032 138.46 39.6192 138.46C42.7521 138.46 46.6242 136.865 46.6242 133.277V129.462ZM46.6242 143.642L46.4533 141.421C44.5742 142.901 41.5561 144.325 38.0823 144.325C31.5901 144.325 27.7183 140.397 27.7183 135.612C27.7183 129.404 32.4452 126.956 37.854 125.988C42.1252 125.191 44.8013 124.508 46.6242 123.881C46.6242 121.717 45.9983 119.61 41.7271 119.61C36.5442 119.61 35.9753 122.4 35.9753 123.881L29.0273 123.483C29.1413 121.604 29.5412 114.315 41.4992 114.315C49.8702 114.315 53.4571 117.39 53.4571 122.4V139.029C53.4571 141.193 53.5722 141.819 54.7103 143.642H46.6242Z" fill="#17405E"/>
<path fill-rule="evenodd" clip-rule="evenodd" d="M57.7938 143.642V138.403L73.1698 121.262H59.3328V115.169H82.1678V120.464L67.1337 137.606H82.1678V143.642H57.7938Z" fill="#17405E"/>
<path fill-rule="evenodd" clip-rule="evenodd" d="M103.969 129.462C102.83 130.031 101.177 130.657 98.5586 131.057C95.4266 131.512 92.2946 132.139 92.2946 134.985C92.2946 136.865 93.5475 138.46 96.9636 138.46C100.096 138.46 103.969 136.865 103.969 133.277V129.462ZM103.969 143.642L103.798 141.421C101.919 142.901 98.9005 144.325 95.4266 144.325C88.9344 144.325 85.0614 140.397 85.0614 135.612C85.0614 129.404 89.7885 126.956 95.1984 125.988C99.4694 125.191 102.146 124.508 103.969 123.881C103.969 121.717 103.343 119.61 99.0705 119.61C93.8885 119.61 93.3196 122.4 93.3196 123.881L86.3716 123.483C86.4856 121.604 86.8844 114.315 98.8435 114.315C107.215 114.315 110.801 117.39 110.801 122.4V139.029C110.801 141.193 110.916 141.819 112.055 143.642H103.969Z" fill="#17405E"/>
<path fill-rule="evenodd" clip-rule="evenodd" d="M136.294 143.642L127.695 130.886L123.708 134.816V143.642H116.932V103.438H123.708V126.045L134.814 115.169H143.525L132.649 126.045L144.608 143.642H136.294Z" fill="#17405E"/>
<path fill-rule="evenodd" clip-rule="evenodd" d="M166.535 143.642V126.956C166.535 122.799 164.485 120.807 161.182 120.807C157.481 120.807 154.064 123.597 154.064 127.868V143.642H147.23V103.438H154.064V118.073C155.772 116.308 158.848 114.315 163.062 114.315C169.268 114.315 173.255 117.845 173.255 124.394V143.642H166.535Z" fill="#17405E"/>
<path fill-rule="evenodd" clip-rule="evenodd" d="M63.4036 166.161H67.5615V156.025H74.3944V166.161H80.4875V171.003H74.3944V185.124C74.3944 186.206 74.4516 187.459 75.0775 188.142C75.8755 188.996 77.3555 188.996 77.6406 188.996C78.6084 188.996 79.6334 188.884 80.4875 188.655V194.406C79.5775 194.52 77.9244 194.862 75.5906 194.862C69.4975 194.862 67.5615 192.641 67.5615 187.972V171.003H63.4036V166.161Z" fill="#17405E"/>
<path fill-rule="evenodd" clip-rule="evenodd" d="M96.5987 189.225C101.61 189.225 103.945 184.954 103.945 180.625C103.945 176.071 101.496 171.457 96.2577 171.457C92.2708 171.457 88.9118 174.362 88.9118 180.113C88.9118 185.124 91.7007 189.225 96.5987 189.225ZM96.5987 195.489C86.2347 195.489 81.7928 187.232 81.7928 180.284C81.7928 173.451 86.2917 165.307 96.3708 165.307C102.578 165.307 111.007 169.463 111.063 180.284C111.063 187.915 106.28 195.489 96.5987 195.489Z" fill="#17405E"/>
<path fill-rule="evenodd" clip-rule="evenodd" d="M134.562 194.634V191.73C133.139 193.04 130.291 195.318 125.336 195.318C120.61 195.318 118.276 193.268 117.136 191.56C115.599 189.281 115.485 186.661 115.485 184.042V166.161H122.375V182.562C122.375 185.295 123.059 188.883 127.957 188.883C131.259 188.883 132.968 186.719 133.48 185.694C134.505 183.7 134.562 181.024 134.562 178.86V166.161H141.395V194.634H134.562Z" fill="#17405E"/>
<path fill-rule="evenodd" clip-rule="evenodd" d="M154.2 166.161V170.204C156.364 165.705 161.319 165.534 162.685 165.534H163.254V172.539C161.831 172.539 156.364 172.54 154.713 177.779C154.2 179.372 154.2 180.796 154.2 182.447V194.634H147.595V166.161H154.2Z" fill="#17405E"/>
<path fill-rule="evenodd" clip-rule="evenodd" d="M166.478 166.161H173.255V194.635H166.478V166.161ZM166.478 154.829H173.255V161.72H166.478V154.829Z" fill="#17405E"/>
<path fill-rule="evenodd" clip-rule="evenodd" d="M197.925 175.102C196.388 172.083 193.483 170.774 190.181 170.774C188.87 170.774 185.453 171.172 185.453 173.735C185.453 175.615 187.162 176.184 191.263 176.924L195.875 177.779C200.204 178.576 203.506 181.138 203.506 185.751C203.506 190.99 198.552 195.489 190.693 195.489C182.835 195.489 178.621 192.015 177.026 190.364L182.151 186.206C183.519 188.029 186.081 189.851 190.351 189.851C194.452 189.851 195.932 187.745 195.932 186.492C195.932 184.84 194.338 184.213 191.718 183.757L188.188 183.131C185.967 182.733 178.278 181.309 178.278 174.589C178.278 168.952 183.689 165.307 190.522 165.307C192.743 165.307 198.495 165.649 202.766 170.603L197.925 175.102Z" fill="#17405E"/>
<path fill-rule="evenodd" clip-rule="evenodd" d="M214.847 166.161V169.349C216.043 167.755 219.403 165.307 223.788 165.307C227.034 165.307 230.109 166.787 231.703 169.635C233.526 167.301 236.43 165.307 240.872 165.307C246.623 165.307 250.667 168.325 250.667 175.158V194.634H243.89V177.208C243.89 176.127 243.662 171.685 239.107 171.685C238.024 171.685 235.576 172.083 234.038 174.59C232.728 176.64 232.672 178.974 232.672 181.252V194.634H225.895V177.151C225.895 174.931 224.927 171.742 221.225 171.742C220.542 171.742 219.061 171.912 217.638 173.108C214.847 175.5 214.79 179.486 214.79 182.676V194.634H207.956V166.161H214.847Z" fill="#17405E"/>
</svg>
