<svg xmlns="http://www.w3.org/2000/svg" xmlns:xlink="http://www.w3.org/1999/xlink" width="98" height="73" fill="none"><path d="M59.98 30H45.22c0-8.4-6.83-15.23-15.23-15.23S14.76 21.6 14.76 30H0C0 13.45 13.45 0 30 0s30 13.45 30 30z" fill="url(#A)"/><g fill="#000"><path d="M0 41.5h2.22v8.02l4.03-4.3h2.7L5.1 49.16l4 5.75H6.5l-2.92-4.2-1.36 1.42v2.78H.01V41.5H0z"/><use xlink:href="#B"/><path d="M19.93 53.38l5.6-6.36h-5.4V45.2h8.24v1.53l-5.6 6.36h5.6v1.82h-8.44v-1.53h-.01z"/><use xlink:href="#B" x="20.1"/><path d="M40.85 41.5h2.22v8.02l4.03-4.3h2.7l-3.86 3.95 4 5.75h-2.57l-2.92-4.2-1.36 1.42v2.78h-2.22V41.5h-.01zm10.4 0h2.22v5.22C54.1 45.8 55 45 56.5 45c2.2 0 3.46 1.47 3.46 3.73v6.18h-2.22v-5.5c0-1.5-.75-2.37-2.08-2.37-1.3 0-2.2.9-2.2 2.4v5.48h-2.22V41.5zm10.3 12.14l1-1.5c1.05.8 2.2 1.2 3.18 1.2.96 0 1.5-.4 1.5-1.08 0-.72-.94-.97-2-1.3l-.17-.06c-1.43-.42-3.03-1-3.03-2.9 0-1.84 1.53-2.96 3.46-2.96 1.2 0 2.54.42 3.57 1.1l-.88 1.58c-.94-.57-1.93-.92-2.74-.92-.86 0-1.36.4-1.36 1 0 .66.94.96 2 1.3l.18.06c1.42.44 3.02 1.08 3.02 2.87 0 2.04-1.58 3.05-3.6 3.05a6.87 6.87 0 0 1-4.13-1.46zm10.1-1.4v-5.1h-1.23v-1.9h1.23v-2.67h2.22v2.67h2.6v1.9h-2.6v4.76c0 .86.44 1.2 1.2 1.2.5 0 .94-.1 1.38-.33v1.82a4.02 4.02 0 0 1-2 .5c-1.64 0-2.8-.72-2.8-2.85z"/><use xlink:href="#B" x="68.2"/><path d="M88.95 45.2h2.22v1.5c.63-.92 1.53-1.7 3.03-1.7 2.2 0 3.46 1.47 3.46 3.73v6.18h-2.22v-5.5c0-1.5-.75-2.37-2.08-2.37-1.3 0-2.2.9-2.2 2.4v5.48h-2.22v-9.7zM0 69.7h2.45v2.52H0V69.7zm4.87-.16v-5.1H3.64v-1.9h1.23v-2.67H7.1v2.67h2.6v1.9H7.1v4.76c0 .86.44 1.2 1.2 1.2.5 0 .94-.1 1.38-.33v1.82a4.02 4.02 0 0 1-2 .5c-1.64 0-2.8-.72-2.8-2.85zm6.73-7.02h2.22v2.2c.6-1.45 1.73-2.45 3.44-2.37v2.35h-.13c-1.95 0-3.3 1.27-3.3 3.84v3.7H11.6v-9.7zm12.95 9.7v-1.2c-.66.8-1.67 1.4-3.14 1.4-1.84 0-3.46-1.05-3.46-3.03 0-2.15 1.67-3.18 3.93-3.18 1.18 0 1.93.17 2.68.4v-.18c0-1.34-.85-2.08-2.4-2.08-1.08 0-1.9.24-2.78.6l-.6-1.78a8.27 8.27 0 0 1 3.7-.8c2.87 0 4.27 1.5 4.27 4.1v5.75h-2.2v-.01zm.06-4.07a6.34 6.34 0 0 0-2.22-.4c-1.4 0-2.22.57-2.22 1.54 0 .92.83 1.43 1.88 1.43 1.47 0 2.57-.83 2.57-2.04v-.54h-.01zm3.05-5.64h2.4l2.6 7.13 2.63-7.13h2.33l-3.97 9.78h-2l-4-9.78zm10.42 4.85c0-2.78 1.97-5.06 4.74-5.06 3.1 0 4.65 2.43 4.65 5.22a6.26 6.26 0 0 1-.04.63H40.3c.24 1.58 1.36 2.46 2.8 2.46 1.08 0 1.86-.4 2.63-1.16l1.3 1.16c-.92 1.1-2.2 1.82-3.97 1.82-2.8.01-4.98-2.03-4.98-5.07zm7.2-.68c-.15-1.43-1-2.56-2.46-2.56-1.36 0-2.32 1.05-2.52 2.56h4.98zm4.22-7.9h2.22v13.42H49.5V58.8z"/></g><defs><linearGradient id="A" x1="30" y1=".3" x2="30" y2="30.2" gradientUnits="userSpaceOnUse"><stop stop-color="#ffee25"/><stop offset="1" stop-color="#e2312d"/></linearGradient><path id="B" d="M16.14 54.9v-1.2c-.66.8-1.67 1.4-3.14 1.4-1.84 0-3.46-1.05-3.46-3.03 0-2.15 1.67-3.18 3.93-3.18 1.18 0 1.93.17 2.68.4v-.18c0-1.34-.85-2.08-2.4-2.08-1.08 0-1.9.24-2.78.6l-.6-1.78c1.07-.48 2.1-.8 3.7-.8 2.87 0 4.27 1.5 4.27 4.1v5.75h-2.2v-.01zm.06-4.06c-.57-.22-1.36-.4-2.22-.4-1.4 0-2.22.57-2.22 1.54 0 .92.83 1.43 1.88 1.43 1.47 0 2.57-.83 2.57-2.04v-.54h-.01z"/></defs></svg>