<svg width="209" height="243" viewBox="0 0 209 243" fill="none" xmlns="http://www.w3.org/2000/svg">
<path d="M19.7987 187.076H21.0706V199.919H19.7987V187.076ZM13.536 187.076H20.488V188.26H13.536V187.076ZM10.7454 198.735C11.2334 198.735 11.64 198.621 11.968 198.395C12.296 198.168 12.5387 197.825 12.7013 197.365C12.8627 196.907 12.944 196.335 12.944 195.652V187.076H14.216V195.635C14.216 196.588 14.0934 197.381 13.8494 198.016C13.6054 198.648 13.24 199.124 12.7533 199.441C12.268 199.759 11.6573 199.917 10.9213 199.917H10.7454V198.735Z" fill="#333333"/>
<path d="M25.1253 198.735H32.5013V199.919H25.1253V198.735ZM25.1253 192.949H31.5306V194.133H25.1253V192.949ZM25.1253 187.076H32.5013V188.26H25.1253V187.076ZM24.2506 187.076H25.5213V199.919H24.2506V187.076Z" fill="#333333"/>
<path d="M37.8987 187.596H39.1707V199.917H37.8987V187.596ZM34.0027 187.076H43.0653V188.26H34.0027V187.076Z" fill="#333333"/>
<path d="M57.1639 187.076H58.4346V199.919H57.1639V187.076ZM50.1946 192.959H57.8533V194.187H50.1946V192.959ZM49.3373 187.076H50.6093V199.919H49.3373V187.076Z" fill="#333333"/>
<path d="M62.4893 198.735H69.8653V199.919H62.4893V198.735ZM62.4893 192.949H68.8947V194.133H62.4893V192.949ZM62.4893 187.076H69.8653V188.26H62.4893V187.076ZM61.616 187.076H62.8866V199.919H61.616V187.076Z" fill="#333333"/>
<path d="M74.9622 200.051C74.9622 200.051 74.6529 199.92 74.0302 199.657C73.4089 199.396 72.9089 199.016 72.5289 198.519C72.1502 198.021 71.9089 197.421 71.8089 196.721H73.2049C73.3396 197.399 73.6756 197.921 74.2129 198.293C74.7476 198.664 75.4356 198.851 76.2782 198.851C77.1569 198.851 77.8356 198.621 78.3196 198.165C78.8022 197.708 79.0436 197.065 79.0436 196.236V196.227C79.0436 195.467 78.8249 194.877 78.3889 194.46C77.9542 194.041 77.3382 193.832 76.5449 193.832H74.6622V192.648H76.5449C77.2729 192.648 77.8369 192.464 78.2356 192.092C78.6329 191.721 78.8302 191.196 78.8302 190.52V190.44C78.8302 189.687 78.6102 189.116 78.1689 188.727C77.7276 188.339 77.0942 188.143 76.2689 188.143C75.5502 188.143 74.9436 188.313 74.4449 188.652C73.9476 188.991 73.6009 189.468 73.4076 190.087H72.0209C72.1622 189.421 72.4182 188.853 72.7889 188.383C73.1596 187.912 73.6342 187.553 74.2129 187.308C74.7889 187.065 75.4449 186.943 76.1809 186.943C77.0356 186.943 77.7622 187.069 78.3596 187.323C78.9569 187.576 79.4116 187.951 79.7236 188.448C80.0356 188.947 80.1916 189.557 80.1916 190.281V190.352C80.1916 191.029 80.0249 191.617 79.6929 192.115C79.3596 192.612 78.8902 192.979 78.2836 193.213C78.9609 193.361 79.4836 193.705 79.8516 194.247C80.2196 194.789 80.4036 195.481 80.4036 196.323V196.332C80.4036 197.116 80.2382 197.785 79.9089 198.343C79.5796 198.899 79.0996 199.323 78.4689 199.613C77.8382 199.905 77.0796 200.051 76.1902 200.051H74.9622Z" fill="#333333"/>
<path d="M83.6906 195.617H90.4467V196.801H83.6906V195.617ZM86.2426 187.076H87.78L92.5146 199.917H91.1L87.0106 188.409L82.9213 199.917H81.5079L86.2426 187.076Z" fill="#333333"/>
<path d="M95.5169 198.734H99.0422C100.132 198.734 100.925 198.53 101.422 198.121C101.921 197.712 102.169 197.137 102.169 196.394V196.368C102.169 195.861 102.076 195.426 101.89 195.06C101.706 194.696 101.414 194.414 101.016 194.216C100.618 194.02 100.108 193.921 99.4836 193.921H95.5169V192.737H99.4836C100.321 192.737 100.948 192.552 101.37 192.181C101.79 191.81 102.001 191.26 102.001 190.529C102.001 189.769 101.77 189.201 101.313 188.824C100.853 188.446 100.161 188.26 99.2356 188.26H95.5169V187.076H99.5182C100.349 187.076 101.045 187.216 101.602 187.498C102.162 187.781 102.581 188.182 102.858 188.701C103.134 189.218 103.273 189.837 103.273 190.554C103.273 190.99 103.188 191.402 103.017 191.788C102.846 192.173 102.586 192.504 102.236 192.781C101.884 193.058 101.45 193.244 100.933 193.337C101.45 193.414 101.898 193.598 102.274 193.889C102.653 194.181 102.94 194.545 103.141 194.981C103.341 195.417 103.441 195.888 103.441 196.394V196.421C103.441 197.116 103.288 197.728 102.982 198.258C102.676 198.788 102.237 199.197 101.665 199.485C101.094 199.774 100.429 199.918 99.6689 199.918H95.5169V198.734ZM94.4569 187.076H95.7289V199.918H94.4569V187.076Z" fill="#333333"/>
<path d="M114.35 199.91V188.665L115.04 188.073L107.389 199.91H106.136V187.075H107.408V198.382L106.885 198.823L114.385 187.075H115.622V199.91H114.35Z" fill="#333333"/>
<path d="M121.673 200.051C121.673 200.051 121.336 199.855 120.661 199.46C119.986 199.065 119.465 198.505 119.093 197.781C118.722 197.056 118.536 196.217 118.536 195.263V191.74C118.536 190.785 118.722 189.945 119.093 189.221C119.465 188.497 119.986 187.936 120.661 187.539C121.336 187.141 122.117 186.943 123.006 186.943C123.742 186.943 124.42 187.092 125.037 187.393C125.656 187.692 126.173 188.119 126.589 188.669C127.004 189.22 127.285 189.857 127.432 190.581H126.16C126.018 190.099 125.788 189.672 125.466 189.3C125.145 188.929 124.769 188.641 124.34 188.435C123.91 188.229 123.466 188.127 123.006 188.127C122.37 188.127 121.812 188.276 121.328 188.577C120.845 188.877 120.472 189.3 120.206 189.844C119.941 190.389 119.809 191.021 119.809 191.74V195.263C119.809 195.981 119.941 196.613 120.206 197.157C120.472 197.703 120.845 198.124 121.328 198.421C121.812 198.719 122.37 198.867 123.006 198.867C123.466 198.867 123.91 198.771 124.34 198.576C124.769 198.381 125.145 198.099 125.466 197.728C125.788 197.356 126.018 196.917 126.16 196.412H127.432C127.285 197.136 127.002 197.773 126.585 198.324C126.165 198.875 125.646 199.301 125.03 199.6C124.412 199.901 123.737 200.051 123.006 200.051H121.673Z" fill="#333333"/>
<path d="M138.031 199.91V188.665L138.722 188.073L131.071 199.91H129.816V187.075H131.088V198.382L130.567 198.823L138.067 187.075H139.303V199.91H138.031Z" fill="#333333"/>
<path d="M152.068 187.075H153.402V199.918H152.13V188.885L152.262 189.451L148.393 198.134H147.492L143.624 189.627L143.757 188.885V199.918H142.485V187.075H143.818L147.942 196.35L152.068 187.075Z" fill="#333333"/>
<path d="M162.583 198.457C163.07 198.182 163.439 197.785 163.693 197.264C163.945 196.744 164.073 196.114 164.073 195.378V191.616C164.073 190.878 163.945 190.25 163.693 189.729C163.439 189.208 163.07 188.812 162.583 188.537C162.098 188.262 161.513 188.126 160.831 188.126C160.147 188.126 159.562 188.262 159.077 188.537C158.591 188.812 158.222 189.208 157.969 189.729C157.715 190.25 157.589 190.878 157.589 191.616V195.378C157.589 196.114 157.715 196.744 157.969 197.264C158.222 197.785 158.591 198.182 159.077 198.457C159.562 198.73 160.147 198.868 160.831 198.868C161.513 198.868 162.098 198.73 162.583 198.457V198.457ZM158.389 199.494C157.714 199.124 157.201 198.585 156.846 197.877C156.494 197.172 156.317 196.318 156.317 195.317V191.677C156.317 190.676 156.494 189.821 156.846 189.116C157.201 188.409 157.714 187.87 158.389 187.498C159.062 187.128 159.877 186.942 160.831 186.942C161.785 186.942 162.599 187.128 163.274 187.498C163.946 187.87 164.461 188.409 164.814 189.116C165.167 189.821 165.343 190.676 165.343 191.677V195.317C165.343 196.318 165.167 197.172 164.814 197.877C164.461 198.585 163.946 199.124 163.274 199.494C162.599 199.866 161.785 200.05 160.831 200.05C159.877 200.05 159.062 199.866 158.389 199.494Z" fill="#333333"/>
<path d="M170.777 200.051C170.777 200.051 170.44 199.855 169.765 199.46C169.091 199.065 168.569 198.505 168.197 197.781C167.827 197.056 167.64 196.217 167.64 195.263V191.74C167.64 190.785 167.827 189.945 168.197 189.221C168.569 188.497 169.091 187.936 169.765 187.539C170.44 187.141 171.221 186.943 172.111 186.943C172.847 186.943 173.524 187.092 174.141 187.393C174.76 187.692 175.277 188.119 175.693 188.669C176.108 189.22 176.389 189.857 176.536 190.581H175.264C175.123 190.099 174.892 189.672 174.571 189.3C174.249 188.929 173.873 188.641 173.444 188.435C173.015 188.229 172.571 188.127 172.111 188.127C171.473 188.127 170.916 188.276 170.432 188.577C169.949 188.877 169.576 189.3 169.309 189.844C169.045 190.389 168.913 191.021 168.913 191.74V195.263C168.913 195.981 169.045 196.613 169.309 197.157C169.576 197.703 169.949 198.124 170.432 198.421C170.916 198.719 171.473 198.867 172.111 198.867C172.571 198.867 173.015 198.771 173.444 198.576C173.873 198.381 174.249 198.099 174.571 197.728C174.892 197.356 175.123 196.917 175.264 196.412H176.536C176.389 197.136 176.107 197.773 175.688 198.324C175.269 198.875 174.751 199.301 174.133 199.6C173.516 199.901 172.841 200.051 172.111 200.051H170.777Z" fill="#333333"/>
<path d="M181.227 187.596H182.499V199.917H181.227V187.596ZM177.331 187.076H186.395V188.26H177.331V187.076Z" fill="#333333"/>
<path d="M196.375 199.91V188.665L197.066 188.073L189.415 199.91H188.16V187.075H189.432V198.382L188.911 198.823L196.411 187.075H197.647V199.91H196.375Z" fill="#333333"/>
<path d="M16.6314 226.253L21.0554 213.059H26.5807L20.4754 229.755L16.6314 226.253ZM16.5514 229.315L21.0354 226.713L27.8021 242.167H21.9767L16.5514 229.315ZM11.2461 225.231H19.8754V230.195H11.2461V225.231ZM8.98474 213.059H14.1287V242.166H8.98474V213.059Z" fill="#03A3DA"/>
<path d="M32.8667 232.719H43.4547V237.583H32.8667V232.719ZM36.3893 213.06H39.8734L48.32 242.167H43.036L38.132 222.808L33.2067 242.167H27.9426L36.3893 213.06Z" fill="#03A3DA"/>
<path d="M55.9882 242.467C55.9882 242.467 55.3562 242.169 54.0962 241.577C52.8349 240.983 51.8882 240.069 51.2536 238.833C50.6202 237.601 50.2829 236.029 50.2416 234.119H55.4269C55.4549 235.279 55.7469 236.134 56.3082 236.682C56.8682 237.229 57.7162 237.502 58.8496 237.502C59.8642 237.502 60.6482 237.229 61.2029 236.682C61.7562 236.134 62.0336 235.354 62.0336 234.339V232.338C62.0336 231.431 61.8056 230.734 61.3522 230.246C60.9002 229.759 60.2509 229.515 59.4109 229.515H55.4269V224.55H59.4109C60.0776 224.55 60.6016 224.357 60.9829 223.97C61.3629 223.583 61.5536 223.05 61.5536 222.369V220.307C61.5536 219.479 61.3229 218.842 60.8616 218.395C60.4029 217.949 59.7442 217.723 58.8909 217.723C57.9296 217.723 57.2056 218.005 56.7189 218.565C56.2322 219.126 55.9602 220.006 55.9069 221.207H50.7229C50.7909 219.273 51.1296 217.685 51.7429 216.442C52.3576 215.202 53.2616 214.278 54.4576 213.671C55.6509 213.063 57.1696 212.761 59.0109 212.761C60.6656 212.761 62.0802 213.045 63.2549 213.609C64.4296 214.178 65.3229 215.002 65.9376 216.083C66.5509 217.163 66.8576 218.458 66.8576 219.966V221.989C66.8576 222.99 66.6016 223.927 66.0869 224.802C65.5722 225.675 64.8429 226.399 63.8962 226.973C64.9896 227.346 65.8376 228.031 66.4376 229.025C67.0376 230.019 67.3389 231.237 67.3389 232.678V234.679C67.3389 236.322 67.0056 237.722 66.3376 238.883C65.6709 240.046 64.7096 240.933 63.4549 241.547C62.2002 242.161 60.6856 242.467 58.9096 242.467H55.9882Z" fill="#03A3DA"/>
<path d="M73.044 232.719H83.632V237.583H73.044V232.719ZM76.5666 213.06H80.0493L88.4973 242.167H83.2133L78.308 222.808L73.384 242.167H68.12L76.5666 213.06Z" fill="#03A3DA"/>
<path d="M97.1458 230.496L96.3445 228.755L88.9778 213.06H94.5231L98.9271 223.809L99.9085 225.992L107.655 242.167H102.111L97.1458 230.496ZM97.0058 224.951L101.671 213.06H107.215L99.4885 229.456L94.2845 242.167H88.7378L97.0058 224.951Z" fill="#03A3DA"/>
<path d="M114.081 242.467C114.081 242.467 113.461 242.131 112.219 241.457C110.979 240.782 110.034 239.798 109.386 238.503C108.739 237.21 108.417 235.654 108.417 233.839V221.407C108.417 219.593 108.739 218.038 109.386 216.743C110.034 215.449 110.979 214.461 112.219 213.781C113.461 213.101 114.949 212.761 116.683 212.761C118.486 212.761 119.981 213.11 121.167 213.81C122.355 214.511 123.257 215.589 123.87 217.045C124.485 218.498 124.825 220.367 124.891 222.649H119.626C119.586 221.554 119.449 220.666 119.217 219.987C118.983 219.306 118.659 218.795 118.245 218.454C117.831 218.115 117.311 217.943 116.683 217.943C116.055 217.943 115.519 218.082 115.073 218.355C114.625 218.629 114.285 219.026 114.051 219.546C113.818 220.066 113.701 220.687 113.701 221.407V233.839C113.701 234.559 113.818 235.178 114.051 235.691C114.285 236.206 114.625 236.599 115.073 236.871C115.519 237.146 116.055 237.282 116.683 237.282C117.311 237.282 117.834 237.115 118.255 236.782C118.675 236.447 118.998 235.939 119.226 235.251C119.453 234.563 119.586 233.671 119.626 232.578H124.891C124.825 234.861 124.485 236.729 123.87 238.183C123.257 239.638 122.355 240.715 121.167 241.417C119.981 242.115 118.486 242.467 116.683 242.467H114.081Z" fill="#03A3DA"/>
<path d="M131.937 215.483H137.081V242.167H131.937V215.483ZM126.013 213.06H143.008V218.005H126.013V213.06Z" fill="#03A3DA"/>
<path d="M146.912 232.719H157.501V237.583H146.912V232.719ZM150.435 213.06H153.917L162.365 242.167H157.081L152.177 222.808L147.251 242.167H141.987L150.435 213.06Z" fill="#03A3DA"/>
<path d="M188.532 232.719H199.12V237.583H188.532V232.719ZM192.055 213.06H195.537L203.985 242.167H198.701L193.797 222.808L188.872 242.167H183.607L192.055 213.06Z" fill="#03A3DA"/>
<path d="M176.459 213.06H181.603V242.167H176.459V213.06ZM167.471 225.332H179.823V230.236H167.471V225.332ZM165.048 213.06H170.173V242.167H165.048V213.06Z" fill="#03A3DA"/>
<path d="M208.039 100.772C207.23 86.1082 201.018 72.2135 190.546 61.6402C180.074 51.0668 166.238 44.7268 151.587 43.7868C134.188 42.6455 117.752 48.7655 105.307 60.9455L104.183 62.0455C100.786 58.5388 96.9804 55.4561 92.863 52.8775L121.35 24.3921V1.02148H120.596V24.0801L91.6577 53.0162L92.0644 53.2668C96.3897 55.9308 100.372 59.1508 103.903 62.8428L104.167 63.1175L105.835 61.4855C118.126 49.4548 134.352 43.4455 151.539 44.5388C181.656 46.4708 205.622 70.6641 207.286 100.813C208.2 117.4 202.42 133.176 191.012 145.232C179.591 157.3 164.178 163.948 147.612 163.948C131.919 163.948 117.082 157.885 105.835 146.877C105.486 146.535 105.152 146.185 104.818 145.833L104.236 145.227L102.555 146.872C91.1777 158.008 76.183 164.077 60.295 163.947C27.6084 163.685 1.01237 136.399 1.01237 103.117V87.8295H33.719V103.387C33.719 115.649 41.607 126.619 52.9004 130.061C65.0404 133.764 77.9337 128.625 84.2644 117.571L84.883 116.491C86.8697 113.021 87.895 108.971 87.847 104.776L87.8444 104.449C87.7697 89.3788 75.6817 77.1161 60.9004 77.1161H37.383L32.6737 65.7468L64.7164 33.7042H1.01237V1.00015H120.974V0.246826H0.259033V34.4575H62.8964L31.7844 65.5708L36.879 77.8708H60.9004C75.2684 77.8708 87.0177 89.7962 87.091 104.456L87.0937 104.785C87.139 108.845 86.1484 112.763 84.2297 116.117L83.611 117.196C77.455 127.943 64.915 132.94 53.1217 129.34C42.1404 125.993 34.4724 115.32 34.4724 103.387V87.0762H0.259033V103.117C0.259033 136.811 27.1897 164.436 60.2884 164.699C60.4537 164.701 60.6164 164.701 60.7804 164.701C76.6724 164.701 91.6777 158.573 103.082 147.411L104.22 146.299L104.271 146.353C104.612 146.711 104.952 147.069 105.307 147.416C116.696 158.563 131.72 164.701 147.612 164.701C164.387 164.701 179.995 157.969 191.56 145.749C203.112 133.543 208.964 117.568 208.039 100.772Z" fill="#FAC00E"/>
<path d="M147.612 77.8053C162.156 77.8053 173.988 89.6387 173.988 104.181C173.988 118.724 162.156 130.556 147.612 130.556C133.069 130.556 121.237 118.724 121.237 104.181C121.237 89.6387 133.069 77.8053 147.612 77.8053ZM147.612 131.309C162.571 131.309 174.743 119.14 174.743 104.181C174.743 89.2227 162.571 77.052 147.612 77.052C132.652 77.052 120.483 89.2227 120.483 104.181C120.483 119.14 132.652 131.309 147.612 131.309Z" fill="#FAC00E"/>
<path d="M101.685 142.953C95.3222 135.428 90.7622 126.33 88.7022 116.328C84.0089 127.098 73.2796 134.636 60.7809 134.636C43.9889 134.636 30.3262 120.974 30.3262 104.181V91.2224H4.40625V104.181C4.40625 135.268 29.6956 160.556 60.7809 160.556C76.8902 160.556 91.4116 153.788 101.685 142.953" fill="#FAC00E"/>
<path d="M117.158 22.7207V4.39136H4.40698V30.3114H72.907L61.2843 41.934L36.375 66.8407C37.7496 70.1607 37.8523 70.406 39.227 73.7247H60.7816C77.5443 73.7247 91.2803 87.27 91.2376 104.033C91.2003 117.729 96.0763 130.306 104.196 140.102C105.458 141.622 106.798 143.073 108.207 144.453C119.25 155.259 134.698 161.581 151.575 160.419C179.374 158.507 201.907 136.001 203.846 108.205C206.14 75.3074 180.028 47.806 147.612 47.806C131.503 47.806 116.983 54.574 106.708 65.4087C113.074 72.934 117.632 82.0314 119.692 92.0354C124.386 81.2647 135.114 73.7274 147.612 73.7274V73.7247C164.958 73.7247 178.963 88.3034 178.022 105.851C177.178 121.593 163.991 134.317 148.23 134.63C136.664 134.861 126.534 128.595 121.186 119.257C118.636 114.806 117.158 109.667 117.158 104.181C117.158 102.951 117.104 101.734 117.026 100.523V100.522C117.02 100.435 117.015 100.347 117.01 100.261C116.998 100.097 116.988 99.9314 116.975 99.7674C116.884 98.5967 116.762 97.434 116.599 96.2847C116.58 96.158 116.56 96.0314 116.539 95.9047C116.527 95.826 116.515 95.7487 116.503 95.6687C116.343 94.6127 116.154 93.5674 115.935 92.5314C115.932 92.5207 115.931 92.5114 115.928 92.5007C115.895 92.3367 115.864 92.17 115.828 92.0074C115.582 90.89 115.296 89.7887 114.983 88.6967C114.91 88.4407 114.834 88.1847 114.756 87.93V87.9287C114.427 86.838 114.075 85.758 113.684 84.6967C113.664 84.6434 113.643 84.5914 113.623 84.5394C113.599 84.4807 113.575 84.4234 113.554 84.3647C113.184 83.382 112.782 82.4154 112.359 81.4607C112.34 81.4167 112.32 81.374 112.302 81.3314C112.216 81.1367 112.131 80.9407 112.043 80.7474C112.043 80.7474 112.043 80.7474 112.042 80.746C111.586 79.7527 111.103 78.7754 110.592 77.8127C110.591 77.8127 110.591 77.8114 110.591 77.8114C110.468 77.582 110.34 77.3554 110.215 77.1274C109.739 76.2594 109.242 75.4047 108.722 74.5647C108.63 74.4154 108.542 74.2634 108.448 74.1154C107.867 73.1954 107.251 72.3007 106.619 71.418C106.534 71.2994 106.447 71.1807 106.36 71.0634C106.274 70.9434 106.186 70.822 106.098 70.702C105.483 69.8727 104.855 69.054 104.196 68.2594L104.192 68.266C99.235 62.2834 93.0736 57.3314 86.0736 53.8034L90.431 49.4447L117.158 22.7207Z" fill="#FAC00E"/>
</svg>
